<svg width="28" height="28" viewBox="0 0 28 28" fill="none" xmlns="http://www.w3.org/2000/svg">
<g clip-path="url(#clip0_2124_88482)">
<path d="M10.9023 8.51172H19.6914C20.1133 8.51172 20.4531 8.16016 20.4531 7.73828C20.4531 7.31641 20.1133 6.97656 19.6914 6.97656H10.9023C10.4805 6.97656 10.1406 7.31641 10.1406 7.73828C10.1406 8.16016 10.4805 8.51172 10.9023 8.51172ZM10.9023 11.7344H17.5703C17.9922 11.7344 18.332 11.3828 18.332 10.9609C18.332 10.5391 17.9922 10.1992 17.5703 10.1992H10.9023C10.4805 10.1992 10.1406 10.5391 10.1406 10.9609C10.1406 11.3828 10.4805 11.7344 10.9023 11.7344ZM7.59766 26.1133H22.7734C23.2891 26.1133 23.7109 25.7031 23.7109 25.1758C23.7109 24.7656 23.4297 24.4023 23.0547 24.2734C21.5781 23.6875 21.2734 21.7773 22.7266 20.3125C23.1719 19.8672 23.7109 19.293 23.7109 18.1211V4.67969C23.7109 2.24219 22.5039 1 20.0781 1H7.63281C5.20703 1 4 2.23047 4 4.67969V22.4922C4 24.9062 5.21875 26.1133 7.59766 26.1133ZM5.88672 19.3398V4.71484C5.88672 3.54297 6.50781 2.88672 7.71484 2.88672H19.9844C21.2031 2.88672 21.8242 3.54297 21.8242 4.71484V17.8633C21.8242 18.4961 21.4609 18.8594 20.8047 18.8594H7.79688C7.03516 18.8594 6.40234 19.0234 5.88672 19.3398ZM7.70312 24.2266C6.51953 24.2266 5.88672 23.5938 5.88672 22.4805C5.88672 21.4258 6.63672 20.7461 7.80859 20.7461H19.832C19.9844 20.7461 20.125 20.7344 20.2422 20.7109C19.6914 21.9297 19.7852 23.2188 20.4062 24.2266H7.70312ZM7.26953 19.8672H8.80469V2.42969H7.26953V19.8672Z" fill="black" fill-opacity="0.85"/>
</g>
<defs>
<clipPath id="clip0_2124_88482">
<rect width="19.7109" height="25.1133" fill="white" transform="translate(4 1)"/>
</clipPath>
</defs>
</svg>
