<svg width="28" height="28" viewBox="0 0 28 28" fill="none" xmlns="http://www.w3.org/2000/svg">
<g clip-path="url(#clip0_2124_88469)">
<path d="M7.60938 3C5.03125 3 2.34766 4.19531 1.14062 6.26953C1.01172 6.50391 1 6.65625 1 7.08984V23.625C1 24.1641 1.33984 24.4922 1.92578 24.4922C2.20703 24.4922 2.47656 24.4102 2.6875 24.2109C4.16406 22.9453 6.12109 22.2891 8.07812 22.2891C9.90625 22.2891 11.6055 22.9336 12.8477 24C12.9766 24.1055 13.1289 24.1641 13.2578 24.1641C13.5156 24.1641 13.7266 23.9766 13.7266 23.6719V6.33984C13.7266 6.03516 13.7031 5.96484 13.4805 5.64844C12.332 3.99609 10.082 3 7.60938 3ZM21.3789 3C18.9062 3 16.6562 3.99609 15.5078 5.64844C15.2852 5.96484 15.2617 6.03516 15.2617 6.33984V23.6719C15.2617 23.9766 15.4727 24.1641 15.7305 24.1641C15.8594 24.1641 16.0234 24.1055 16.1406 24C17.3828 22.9336 19.082 22.2891 20.9102 22.2891C22.8672 22.2891 24.8242 22.9453 26.3008 24.2109C26.5117 24.4102 26.7812 24.4922 27.0625 24.4922C27.6484 24.4922 27.9883 24.1641 27.9883 23.625V7.08984C27.9883 6.65625 27.9766 6.49219 27.8477 6.26953C26.6406 4.19531 23.957 3 21.3789 3Z" fill="black" fill-opacity="0.85"/>
</g>
<defs>
<clipPath id="clip0_2124_88469">
<rect width="26.9883" height="21.5273" fill="white" transform="translate(1 3)"/>
</clipPath>
</defs>
</svg>
