<svg width="45" height="29" viewBox="0 0 45 29" fill="none" xmlns="http://www.w3.org/2000/svg">
<g clip-path="url(#clip0_2124_45783)">
<path d="M35.9277 14.5657C38.3535 14.5657 40.3223 12.3977 40.3223 9.73755C40.3223 7.13599 38.3653 5.03833 35.9277 5.03833C33.5254 5.03833 31.5332 7.17114 31.5332 9.76099C31.5332 12.4094 33.5254 14.5657 35.9277 14.5657ZM35.9277 12.8196C34.4981 12.8196 33.2793 11.4485 33.2793 9.76099C33.2793 8.10864 34.4863 6.78442 35.9277 6.78442C37.4043 6.78442 38.5879 8.0852 38.5879 9.73755C38.5879 11.4485 37.3692 12.8196 35.9277 12.8196ZM29.4121 25.3118H42.4317C44.0254 25.3118 44.8223 24.6672 44.8223 23.3547C44.8223 19.4641 40.8379 15.9016 35.9277 15.9016C31.0059 15.9016 27.0332 19.4641 27.0332 23.3547C27.0332 24.6672 27.8301 25.3118 29.4121 25.3118ZM28.7793 23.2493C28.7793 20.343 32.0957 17.636 35.9277 17.636C39.7598 17.636 43.0762 20.343 43.0762 23.2493C43.0762 23.4836 42.9707 23.5774 42.7246 23.5774H29.1192C28.8848 23.5774 28.7793 23.4836 28.7793 23.2493Z" fill="black" fill-opacity="0.85"/>
<path d="M8.92773 14.5657C11.3418 14.5657 13.3223 12.3977 13.3223 9.73755C13.3223 7.13599 11.3653 5.03833 8.92773 5.03833C6.51367 5.03833 4.5332 7.17114 4.5332 9.76099C4.5332 12.4094 6.51367 14.5657 8.92773 14.5657ZM8.92773 12.8196C7.48632 12.8196 6.27929 11.4485 6.27929 9.76099C6.27929 8.10864 7.4746 6.78442 8.92773 6.78442C10.4043 6.78442 11.5879 8.0852 11.5879 9.73755C11.5879 11.4485 10.3692 12.8196 8.92773 12.8196ZM2.40039 25.3118H15.4317C17.0137 25.3118 17.8106 24.6672 17.8106 23.3547C17.8106 19.4641 13.8262 15.9016 8.91601 15.9016C4.00586 15.9016 0.0214844 19.4641 0.0214844 23.3547C0.0214844 24.6672 0.818359 25.3118 2.40039 25.3118ZM1.76757 23.2493C1.76757 20.343 5.08398 17.636 8.91601 17.636C12.7481 17.636 16.0645 20.343 16.0645 23.2493C16.0645 23.4836 15.959 23.5774 15.7246 23.5774H2.11914C1.87304 23.5774 1.76757 23.4836 1.76757 23.2493Z" fill="black" fill-opacity="0.85"/>
<path d="M15.0567 26.9055H29.7754C32.9043 26.9055 34.2637 25.4289 34.2637 23.4368C34.2637 19.4524 29.6465 14.3196 22.416 14.3196C15.1973 14.3196 10.5801 19.4524 10.5801 23.4368C10.5801 25.4289 11.9395 26.9055 15.0567 26.9055Z" fill="white"/>
<path d="M22.4276 14.4602C25.2167 14.4602 27.4902 11.9876 27.4902 8.96411C27.4902 5.96411 25.2284 3.60864 22.4276 3.60864C19.6386 3.60864 17.3652 6.01099 17.3652 8.98755C17.3652 11.9993 19.6386 14.4602 22.4276 14.4602ZM22.4276 12.6907C20.7167 12.6907 19.2519 11.0618 19.2519 8.98755C19.2519 6.94849 20.6816 5.37817 22.4276 5.37817C24.1737 5.37817 25.6034 6.91333 25.6034 8.96411C25.6034 11.0383 24.1503 12.6907 22.4276 12.6907ZM15.0566 25.3118H29.7753C31.7323 25.3118 32.6581 24.7258 32.6581 23.4368C32.6581 20.3664 28.7792 15.925 22.4159 15.925C16.0644 15.925 12.1855 20.3664 12.1855 23.4368C12.1855 24.7258 13.1112 25.3118 15.0566 25.3118ZM14.4941 23.5422C14.1894 23.5422 14.0722 23.4602 14.0722 23.2141C14.0722 21.2805 17.0487 17.6946 22.4159 17.6946C27.7948 17.6946 30.7714 21.2805 30.7714 23.2141C30.7714 23.4602 30.6425 23.5422 30.3378 23.5422H14.4941Z" fill="black" fill-opacity="0.85"/>
</g>
<defs>
<clipPath id="clip0_2124_45783">
<rect width="44.8008" height="24.8789" fill="white" transform="translate(0.0214844 2.02661)"/>
</clipPath>
</defs>
</svg>
