<svg width="35" height="29" viewBox="0 0 35 29" fill="none" xmlns="http://www.w3.org/2000/svg">
<g clip-path="url(#clip0_2124_45768)">
<path d="M8.92578 14.5642C11.3398 14.5642 13.3203 12.3962 13.3203 9.73608C13.3203 7.13452 11.3633 5.03687 8.92578 5.03687C6.51172 5.03687 4.53125 7.16968 4.53125 9.75953C4.53125 12.4079 6.51172 14.5642 8.92578 14.5642ZM8.92578 12.8181C7.49609 12.8181 6.27734 11.447 6.27734 9.75953C6.27734 8.10718 7.48437 6.78296 8.92578 6.78296C10.4023 6.78296 11.5859 8.08373 11.5859 9.73608C11.5859 11.447 10.3672 12.8181 8.92578 12.8181ZM2.41015 25.3103H15.4297C17.0234 25.3103 17.8086 24.6657 17.8086 23.3532C17.8086 19.4626 13.8359 15.9001 8.91406 15.9001C4.00391 15.9001 0.0195312 19.4626 0.0195312 23.3532C0.0195312 24.6657 0.816406 25.3103 2.41015 25.3103ZM2.11719 23.5759C1.88281 23.5759 1.76562 23.4821 1.76562 23.2478C1.76562 20.3415 5.08203 17.6345 8.91406 17.6345C12.7578 17.6345 16.0625 20.3415 16.0625 23.2478C16.0625 23.4821 15.957 23.5759 15.7226 23.5759H2.11719Z" fill="black" fill-opacity="0.85"/>
<path d="M15.0664 26.904H29.7851C32.9023 26.904 34.2617 25.4274 34.2617 23.4353C34.2617 19.4509 29.6445 14.3181 22.4257 14.3181C15.1953 14.3181 10.5898 19.4509 10.5898 23.4353C10.5898 25.4274 11.9375 26.904 15.0664 26.904ZM22.4257 14.4587C25.2148 14.4587 27.4883 11.9861 27.4883 8.96265C27.4883 5.96265 25.2265 3.60718 22.4257 3.60718C19.6484 3.60718 17.3633 6.00953 17.3633 8.98609C17.3633 11.9978 19.6484 14.4587 22.4257 14.4587Z" fill="white"/>
<path d="M22.4257 14.4587C25.2148 14.4587 27.4883 11.9861 27.4883 8.96265C27.4883 5.96265 25.2265 3.60718 22.4257 3.60718C19.6484 3.60718 17.3633 6.00953 17.3633 8.98609C17.3633 11.9978 19.6484 14.4587 22.4257 14.4587ZM22.4257 12.6892C20.7148 12.6892 19.25 11.0603 19.25 8.98609C19.25 6.94703 20.6914 5.37671 22.4257 5.37671C24.1718 5.37671 25.6015 6.91187 25.6015 8.96265C25.6015 11.0369 24.1601 12.6892 22.4257 12.6892ZM15.0664 25.3103H29.7851C31.7304 25.3103 32.6562 24.7243 32.6562 23.4353C32.6562 20.3649 28.7773 15.9235 22.4257 15.9235C16.0625 15.9235 12.1836 20.3649 12.1836 23.4353C12.1836 24.7243 13.1093 25.3103 15.0664 25.3103ZM14.5039 23.5407C14.1992 23.5407 14.0703 23.4587 14.0703 23.2126C14.0703 21.279 17.0468 17.6931 22.4257 17.6931C27.7929 17.6931 30.7695 21.279 30.7695 23.2126C30.7695 23.4587 30.6523 23.5407 30.3476 23.5407H14.5039Z" fill="black" fill-opacity="0.85"/>
</g>
<defs>
<clipPath id="clip0_2124_45768">
<rect width="34.2422" height="24.8789" fill="white" transform="translate(0.0195312 2.02515)"/>
</clipPath>
</defs>
</svg>
