<svg width="28" height="28" viewBox="0 0 28 28" fill="none" xmlns="http://www.w3.org/2000/svg">
<g clip-path="url(#clip0_2124_88379)">
<path d="M3.67969 27.8359H23.9531C26.4141 27.8359 27.6328 26.6289 27.6328 24.3672V17.8984C27.6328 16.832 27.5625 16.1055 26.9648 15.543L22.8164 11.6172C21.5391 10.4219 20.625 10.0469 18.8906 10.0469H8.74219C7.01953 10.0469 6.09375 10.4219 4.82812 11.6172L0.667969 15.543C0.0703125 16.1055 0 16.832 0 17.8984V24.3672C0 26.6289 1.23047 27.8359 3.67969 27.8359ZM13.8164 20.8516C12.1641 20.8516 11.0977 19.4219 11.0977 18.0625V18.0156C11.0977 17.5234 10.8047 17.0664 10.1953 17.0664H2.75391C2.08594 17.0664 1.86328 16.7617 2.40234 16.2578L6.26953 12.6133C6.98438 11.9453 7.45312 11.6875 8.56641 11.6875H19.0664C20.1914 11.6875 20.6484 11.9453 21.3633 12.6133L25.2305 16.2578C25.793 16.7852 25.5352 17.0664 24.8906 17.0664H17.4375C16.8281 17.0664 16.5469 17.5234 16.5469 18.0156V18.0625C16.5469 19.4219 15.4805 20.8516 13.8164 20.8516ZM3.70312 26.1133C2.53125 26.1133 1.88672 25.4805 1.88672 24.2617V18.7891H9.31641C9.59766 20.9688 11.4375 22.5977 13.8164 22.5977C16.1953 22.5977 18.0352 20.9688 18.3164 18.7891H25.7461V24.2617C25.7461 25.4805 25.0898 26.1133 23.9297 26.1133H3.70312Z" fill="black" fill-opacity="0.85"/>
<path d="M3.67969 18.7891H23.9531C26.4141 18.7891 27.6328 17.582 27.6328 15.3203V8.85156C27.6328 7.78516 27.5625 7.07031 26.9648 6.49609L22.8164 2.57031C21.5391 1.38672 20.625 1 18.8906 1H8.74219C7.01953 1 6.09375 1.38672 4.82812 2.57031L0.667969 6.49609C0.0703125 7.07031 0 7.78516 0 8.85156V15.3203C0 17.582 1.23047 18.7891 3.67969 18.7891Z" fill="white"/>
<path d="M3.67969 18.7891H23.9531C26.4141 18.7891 27.6328 17.582 27.6328 15.3203V8.85156C27.6328 7.78516 27.5625 7.07031 26.9648 6.49609L22.8164 2.57031C21.5391 1.38672 20.625 1 18.8906 1H8.74219C7.01953 1 6.09375 1.38672 4.82812 2.57031L0.667969 6.49609C0.0703125 7.07031 0 7.78516 0 8.85156V15.3203C0 17.582 1.23047 18.7891 3.67969 18.7891ZM13.8164 11.8047C12.1641 11.8047 11.0977 10.375 11.0977 9.01562V8.96875C11.0977 8.47656 10.8047 8.01953 10.1953 8.01953H2.75391C2.08594 8.01953 1.86328 7.71484 2.40234 7.21094L6.26953 3.56641C6.98438 2.89844 7.45312 2.65234 8.56641 2.65234H19.0664C20.1914 2.65234 20.6484 2.89844 21.3633 3.56641L25.2305 7.21094C25.793 7.73828 25.5352 8.01953 24.8906 8.01953H17.4375C16.8281 8.01953 16.5469 8.47656 16.5469 8.96875V9.01562C16.5469 10.375 15.4805 11.8047 13.8164 11.8047ZM3.70312 17.0664C2.53125 17.0664 1.88672 16.4336 1.88672 15.2148V9.74219H9.31641C9.59766 11.9219 11.4375 13.5508 13.8164 13.5508C16.1953 13.5508 18.0352 11.9219 18.3164 9.74219H25.7461V15.2148C25.7461 16.4336 25.0898 17.0664 23.9297 17.0664H3.70312Z" fill="black" fill-opacity="0.85"/>
</g>
<defs>
<clipPath id="clip0_2124_88379">
<rect width="27.6328" height="26.8477" fill="white" transform="translate(0 1)"/>
</clipPath>
</defs>
</svg>
