<svg width="37" height="28" viewBox="0 0 37 28" fill="none" xmlns="http://www.w3.org/2000/svg">
<g clip-path="url(#clip0_2124_89304)">
<path d="M18.1172 12.3828C18.5156 12.3828 18.8672 12.6172 19.0664 13.0508L20.332 15.8516C21.7383 18.9102 24.3047 20.2109 27.1289 20.2109C31.2539 20.2109 34.1602 17.668 34.8281 13.1914L35.0508 11.7383C35.2852 10.1562 36.2227 9.65234 36.2227 8.97266C36.2227 8.375 35.7891 8 34.9805 8C31.2891 8 27.9375 8.1875 25.9453 8.48047C21.7617 9.10156 20.1211 10.168 18.1172 10.168C16.1016 10.168 14.4609 9.10156 10.2773 8.48047C8.28516 8.1875 4.93359 8 1.25391 8C0.445312 8 0 8.375 0 8.97266C0 9.65234 0.949219 10.1562 1.18359 11.7383L1.40625 13.1914C2.0625 17.668 4.96875 20.2109 9.10547 20.2109C11.9297 20.2109 14.4961 18.9102 15.8906 15.8516L17.168 13.0508C17.3555 12.6172 17.707 12.3828 18.1172 12.3828ZM9.11719 18.4414C5.25 18.4414 3.11719 15.793 3.11719 12.0195C3.11719 10.6953 4.23047 10.0625 6.70312 10.0625C11.9414 10.0625 14.5195 11.0703 14.5195 13.0508C14.5195 16.0391 12.5273 18.4414 9.11719 18.4414ZM27.1055 18.4414C23.707 18.4414 21.7031 16.0391 21.7031 13.0508C21.7031 11.0703 24.2812 10.0625 29.5195 10.0625C32.0039 10.0625 33.1055 10.6953 33.1055 12.0195C33.1055 15.793 30.9727 18.4414 27.1055 18.4414Z" fill="black" fill-opacity="0.85"/>
<path d="M9.11719 18.4414C5.25 18.4414 3.11719 15.793 3.11719 12.0195C3.11719 10.6953 4.23047 10.0625 6.70312 10.0625C11.9414 10.0625 14.5195 11.0703 14.5195 13.0508C14.5195 16.0391 12.5273 18.4414 9.11719 18.4414ZM27.1055 18.4414C23.707 18.4414 21.7031 16.0391 21.7031 13.0508C21.7031 11.0703 24.2812 10.0625 29.5195 10.0625C32.0039 10.0625 33.1055 10.6953 33.1055 12.0195C33.1055 15.793 30.9727 18.4414 27.1055 18.4414Z" fill="white"/>
</g>
<defs>
<clipPath id="clip0_2124_89304">
<rect width="36.2227" height="12.2227" fill="white" transform="translate(0 8)"/>
</clipPath>
</defs>
</svg>
