<?xml version="1.0"?>
<svg width="28" height="28" xmlns="http://www.w3.org/2000/svg" xmlns:svg="http://www.w3.org/2000/svg">

 <g class="layer">
  <title>Layer 1</title>
  <path d="m19.46,14.17c0,-0.29 -0.12,-0.56 -0.34,-0.77l-9.28,-9.1c-0.21,-0.19 -0.47,-0.3 -0.77,-0.3c-0.6,0 -1.07,0.46 -1.07,1.07c0,0.29 0.12,0.56 0.3,0.76l8.54,8.34l-8.54,8.35c-0.18,0.19 -0.3,0.45 -0.3,0.76c0,0.61 0.47,1.06 1.07,1.06c0.3,0 0.56,-0.1 0.77,-0.31l9.28,-9.08c0.22,-0.23 0.34,-0.49 0.34,-0.78z" fill="black" fill-opacity="0.85" id="svg_1" transform="rotate(-179.931, 13.73, 14.17)"/>
 </g>
</svg>