<?xml version="1.0" standalone="no"?>
<!DOCTYPE svg PUBLIC "-//W3C//DTD SVG 20010904//EN"
 "http://www.w3.org/TR/2001/REC-SVG-20010904/DTD/svg10.dtd">
<svg version="1.0" xmlns="http://www.w3.org/2000/svg"
 width="290.000000pt" height="290.000000pt" viewBox="0 0 290.000000 290.000000"
 preserveAspectRatio="xMidYMid meet">

<g transform="translate(0.000000,290.000000) scale(0.100000,-0.100000)"
fill="#000000" stroke="none">
<path d="M512 2850 c-229 -52 -402 -221 -469 -460 -17 -61 -18 -124 -18 -945
0 -827 1 -884 19 -950 55 -208 217 -381 416 -443 116 -37 241 -42 990 -42 749
0 874 5 990 42 199 62 361 235 416 443 18 66 19 123 19 950 0 820 -1 884 -18
945 -52 185 -170 333 -327 408 -153 73 -134 72 -1087 71 -789 -1 -854 -2 -931
-19z"/>
</g>
</svg>
