<svg width="28" height="28" viewBox="0 0 28 28" fill="none" xmlns="http://www.w3.org/2000/svg">
<g clip-path="url(#clip0_2124_88693)">
<path d="M14.8194 26.0962L26.2451 14.647C27.124 13.7681 27.1826 13.2642 27.1826 12.0337V7.58057C27.1826 6.33838 26.8897 5.95166 25.999 5.06104L23.3037 2.36573C22.4248 1.48682 22.0381 1.18213 20.7959 1.18213H16.3311C15.1006 1.18213 14.6084 1.24073 13.7295 2.11963L2.26857 13.5571C0.592789 15.2329 0.557632 16.9673 2.28029 18.6782L9.69826 26.0845C11.4209 27.7954 13.1436 27.772 14.8194 26.0962ZM13.5537 24.6782C12.71 25.522 11.8194 25.5337 10.9639 24.6665L3.68654 17.4009C2.83107 16.5454 2.84279 15.6431 3.67482 14.811L15.0537 3.45557C15.2881 3.2212 15.5342 3.06885 15.9326 3.06885H20.8662C21.2295 3.06885 21.4756 3.20948 21.7217 3.45557L24.9209 6.64307C25.167 6.88916 25.2959 7.13526 25.2959 7.49854V12.4439C25.2959 12.8306 25.1553 13.0767 24.9209 13.311L13.5537 24.6782ZM19.4248 10.5571C20.3389 10.5571 21.0303 9.84229 21.0303 8.95166C21.0303 8.04932 20.3389 7.3462 19.4248 7.3462C18.499 7.3462 17.8194 8.04932 17.8194 8.95166C17.8194 9.84229 18.499 10.5571 19.4248 10.5571Z" fill="black" fill-opacity="0.85"/>
</g>
<defs>
<clipPath id="clip0_2124_88693">
<rect width="26.1826" height="27.3604" fill="white" transform="translate(1)"/>
</clipPath>
</defs>
</svg>
