<svg width="30" height="28" viewBox="0 0 30 28" fill="none" xmlns="http://www.w3.org/2000/svg">
<g clip-path="url(#clip0_2124_89401)">
<path d="M0 19.4961C0 22.7656 2.92969 25.2148 6.51562 25.2148C10.0898 25.2148 13.0078 22.7656 13.0078 19.4961V16.4961C13.582 16.2734 14.2734 16.1445 14.9648 16.1445C15.7266 16.1445 16.3828 16.2266 16.9102 16.4141V19.4961C16.9102 22.7656 19.8281 25.2148 23.4023 25.2148C26.9766 25.2148 29.918 22.7656 29.918 19.4961C29.918 18.6406 29.7891 17.8438 29.3086 16.7305L24.4453 5.38672C23.7773 3.86328 22.3828 2.97266 20.625 2.97266C18.375 2.97266 16.9102 4.40234 16.9102 6.54688V7.68359C16.3242 7.53125 15.6797 7.44922 14.9648 7.44922C14.2852 7.44922 13.6289 7.55469 13.0078 7.75391V6.54688C13.0078 4.40234 11.543 2.97266 9.29297 2.97266C7.53516 2.97266 6.12891 3.86328 5.47266 5.38672L0.597656 16.7305C0.117188 17.8438 0 18.6406 0 19.4961ZM1.83984 19.4961C1.83984 17.1406 3.86719 15.5352 6.51562 15.5352C9.15234 15.5352 11.25 17.1406 11.25 19.4961C11.25 21.8516 9.15234 23.457 6.51562 23.457C3.86719 23.457 1.83984 21.8516 1.83984 19.4961ZM18.668 19.4961C18.668 17.1406 20.7539 15.5352 23.4023 15.5352C26.0391 15.5352 28.0664 17.1406 28.0664 19.4961C28.0664 21.8516 26.0391 23.457 23.4023 23.457C20.7539 23.457 18.668 21.8516 18.668 19.4961ZM13.0078 12.9219V11.3281C13.6289 11.1289 14.2852 11.0352 14.9648 11.0352C15.6797 11.0352 16.3242 11.1055 16.9102 11.2578V12.8281C16.3828 12.6523 15.7383 12.5703 14.9648 12.5703C14.2734 12.5703 13.582 12.6992 13.0078 12.9219Z" fill="black" fill-opacity="0.85"/>
</g>
<defs>
<clipPath id="clip0_2124_89401">
<rect width="29.918" height="23.2148" fill="white" transform="translate(0 2)"/>
</clipPath>
</defs>
</svg>
