<svg width="30" height="28" viewBox="0 0 30 28" fill="none" xmlns="http://www.w3.org/2000/svg">
<g clip-path="url(#clip0_2124_89400)">
<path d="M0 19.4961C0 22.7656 2.92969 25.2148 6.51562 25.2148C10.0898 25.2148 13.0078 22.7656 13.0078 19.4961V6.54688C13.0078 4.40234 11.543 2.97266 9.29297 2.97266C7.53516 2.97266 6.12891 3.86328 5.47266 5.38672L0.597656 16.7305C0.117188 17.8438 0 18.6406 0 19.4961ZM3.49219 14.4805L7.06641 6.17188C7.46484 5.23438 8.26172 4.68359 9.22266 4.68359C10.4648 4.68359 11.2617 5.50391 11.2617 6.73438V15.6406C10.0898 14.4805 8.35547 13.7773 6.51562 13.7773C5.47266 13.7773 4.40625 14.0352 3.49219 14.4805ZM1.83984 19.4961C1.83984 17.1406 3.86719 15.5352 6.51562 15.5352C9.15234 15.5352 11.25 17.1406 11.25 19.4961C11.25 21.8516 9.15234 23.457 6.51562 23.457C3.86719 23.457 1.83984 21.8516 1.83984 19.4961ZM29.918 19.4961C29.918 18.6406 29.7891 17.8438 29.3086 16.7305L24.4453 5.38672C23.7773 3.86328 22.3828 2.97266 20.625 2.97266C18.375 2.97266 16.9102 4.40234 16.9102 6.54688V19.4961C16.9102 22.7656 19.8281 25.2148 23.4023 25.2148C26.9766 25.2148 29.918 22.7656 29.918 19.4961ZM26.4258 14.4805C25.5117 14.0352 24.4453 13.7773 23.4023 13.7773C21.5625 13.7773 19.8164 14.4805 18.6445 15.6406V6.73438C18.6445 5.50391 19.4531 4.68359 20.6953 4.68359C21.6445 4.68359 22.4414 5.23438 22.8398 6.17188L26.4258 14.4805ZM28.0664 19.4961C28.0664 21.8516 26.0391 23.457 23.4023 23.457C20.7539 23.457 18.668 21.8516 18.668 19.4961C18.668 17.1406 20.7539 15.5352 23.4023 15.5352C26.0391 15.5352 28.0664 17.1406 28.0664 19.4961ZM12.2227 16.8594C12.9023 16.4258 13.9102 16.1445 14.9648 16.1445C16.2656 16.1445 17.1094 16.3438 17.7773 16.8359V15.0898C17.0039 14.7617 16.0781 14.6094 14.9648 14.6094C13.9922 14.6094 13.043 14.8086 12.2227 15.1484V16.8594ZM12.2227 13.2852C12.9023 12.8398 13.9102 12.5703 14.9648 12.5703C16.2656 12.5703 17.1094 12.7578 17.7773 13.2617V11.5156C17.0039 11.1875 16.0781 11.0352 14.9648 11.0352C13.9922 11.0352 13.043 11.2344 12.2227 11.5742V13.2852ZM12.2227 9.69922C12.9023 9.26562 13.9102 8.98438 14.9648 8.98438C16.2656 8.98438 17.1094 9.18359 17.7773 9.67578V7.94141C17.0039 7.61328 16.0781 7.44922 14.9648 7.44922C13.9922 7.44922 13.043 7.66016 12.2227 8V9.69922Z" fill="black" fill-opacity="0.85"/>
</g>
<defs>
<clipPath id="clip0_2124_89400">
<rect width="29.918" height="23.2148" fill="white" transform="translate(0 2)"/>
</clipPath>
</defs>
</svg>
