<svg width="45" height="29" viewBox="0 0 45 29" fill="none" xmlns="http://www.w3.org/2000/svg">
<g clip-path="url(#clip0_2124_45784)">
<path d="M8.61328 14.1907C10.8046 14.1907 12.6914 12.2219 12.6914 9.67895C12.6914 7.15942 10.7929 5.29614 8.61328 5.29614C6.44532 5.29614 4.53516 7.2063 4.53516 9.70239C4.53516 12.2219 6.4336 14.1907 8.61328 14.1907ZM2.08594 24.7727H15.1406C16.6289 24.7727 17.2031 24.1868 17.2031 23.1321C17.2031 19.886 13.8984 15.9836 8.61328 15.9836C3.32813 15.9836 0.0234375 19.886 0.0234375 23.1321C0.0234375 24.1868 0.597656 24.7727 2.08594 24.7727Z" fill="black" fill-opacity="0.85"/>
<path d="M35.6132 14.1907C37.8046 14.1907 39.6914 12.2219 39.6914 9.67895C39.6914 7.15942 37.7929 5.29614 35.6132 5.29614C33.4336 5.29614 31.5234 7.2063 31.5234 9.70239C31.5234 12.2219 33.4336 14.1907 35.6132 14.1907ZM29.0859 24.7727H42.1289C43.6172 24.7727 44.1914 24.1868 44.1914 23.1321C44.1914 19.886 40.8984 15.9836 35.6132 15.9836C30.3164 15.9836 27.0234 19.886 27.0234 23.1321C27.0234 24.1868 27.5976 24.7727 29.0859 24.7727Z" fill="black" fill-opacity="0.85"/>
<path d="M14.25 26.3664H29.9765C32.25 26.3664 33.5742 24.9719 33.5742 23.2141C33.5742 19.2766 29.0625 14.425 22.1132 14.425C15.1757 14.425 10.6523 19.2766 10.6523 23.2141C10.6523 24.9719 11.9882 26.3664 14.25 26.3664Z" fill="white"/>
<path d="M22.125 13.9211C24.6328 13.9211 26.8125 11.6711 26.8125 8.74145C26.8125 5.84692 24.6328 3.70239 22.125 3.70239C19.6172 3.70239 17.4375 5.8938 17.4375 8.76489C17.4375 11.6711 19.6054 13.9211 22.125 13.9211ZM14.25 24.7727H29.9765C31.2304 24.7727 31.9804 24.1868 31.9804 23.2141C31.9804 20.1907 28.1953 16.0188 22.1132 16.0188C16.0429 16.0188 12.2578 20.1907 12.2578 23.2141C12.2578 24.1868 13.0078 24.7727 14.25 24.7727Z" fill="black" fill-opacity="0.85"/>
</g>
<defs>
<clipPath id="clip0_2124_45784">
<rect width="44.168" height="24.3398" fill="white" transform="translate(0.0234375 2.02661)"/>
</clipPath>
</defs>
</svg>
